<?xml version="1.0" encoding="utf-8"?>
<!-- Generator: Adobe Illustrator 16.0.0, SVG Export Plug-In . SVG Version: 6.00 Build 0)  -->
<!DOCTYPE svg PUBLIC "-//W3C//DTD SVG 1.1//EN" "http://www.w3.org/Graphics/SVG/1.1/DTD/svg11.dtd">
<svg version="1.1" id="图层_1" xmlns="http://www.w3.org/2000/svg" xmlns:xlink="http://www.w3.org/1999/xlink" x="0px" y="0px"
	 width="2484.039px" height="688px" viewBox="0 0 2484.039 688" enable-background="new 0 0 2484.039 688" xml:space="preserve">
<g>
	<path fill="#9C0013" d="M410.767,496.919l-57.074-98.999H104.075c9.698,45.487,33.739,85.542,67.039,115.575H394.44
		C400.209,508.291,405.589,502.701,410.767,496.919z"/>
	<path fill="#DB0013" d="M403.731,181.765l-23.16,40.116l-43.564,75.345l57.968,100.405h-0.298l66.807,115.864
		c33.296-30.033,57.345-70.088,67.035-115.575L403.731,181.765z"/>
	<path d="M629.401,405.104c0.587,0.719,21.035,36.674,61.34,107.883v0.509h-34.891c-0.881-0.684-4.683-7.062-11.398-19.152
		c-0.797-0.963-12.283-20.535-34.452-58.698c-1.218,1.385-7.601,12.301-19.147,32.749c-0.626,0.806-9.444,15.84-26.449,45.102
		h-34.641l-0.504-0.264c36.528-64.813,56.894-100.874,61.09-108.128H629.401z"/>
	<path d="M697.544,405.104h98.438c10.833,0,19.966,4.275,27.399,12.844c4.03,5.257,6.046,10.741,6.046,16.506v19.905
		c0,10.109-5.646,18.591-16.944,25.441c-2.055,0.789-3.188,1.191-3.399,1.191c1.678,2.821,8.459,13.475,20.344,31.995v0.509h-43.394
		c-0.924-0.719-5.523-9.69-13.794-26.896l-1.954-2.961h-38.544v29.349c0,0.333-0.166,0.509-0.504,0.509h-33.694
		c-0.338,0-0.504-0.176-0.504-0.509V405.612C697.079,405.262,697.25,405.104,697.544,405.104z M731.742,430.791v27.142h49.188
		c7.053,0,11.504-3.049,13.352-9.182c0.338-1.472,0.504-2.839,0.504-4.101c0-6.588-2.751-10.951-8.248-13.105
		c-1.722-0.491-3.426-0.754-5.104-0.754H731.742z"/>
	<path d="M869.172,405.104h106.687c0.337,0.035,0.504,0.211,0.504,0.509v24.688c0,0.332-0.167,0.49-0.504,0.49h-86.786
		c-9.238,0-15.306,4.626-18.201,13.859c-0.293,1.35-0.442,3.102-0.442,5.292v18.959c0,9.059,4.03,15.121,12.095,18.135
		c1.634,0.666,3.986,1.017,7.053,1.017h86.282c0.337,0.035,0.504,0.175,0.504,0.438v24.495c0,0.333-0.167,0.509-0.504,0.509H869.675
		c-12.559,0-22.572-5.345-30.045-15.998c-2.603-4.328-3.903-8.778-3.903-13.352v-50.709c0-8.305,4.6-15.822,13.794-22.551
		C855.903,407.031,862.452,405.104,869.172,405.104z"/>
	<path d="M1082.804,405.104c0.587,0.719,21.035,36.674,61.34,107.883v0.509h-34.891c-0.88-0.684-4.683-7.062-11.397-19.152
		c-0.798-0.963-12.283-20.535-34.453-58.698c-1.218,1.385-7.6,12.301-19.146,32.749c-0.627,0.806-9.444,15.84-26.45,45.102h-34.641
		l-0.504-0.264c36.529-64.813,56.895-100.874,61.091-108.128H1082.804z"/>
	<path d="M1150.946,405.104h112.991c7.806,0,15.722,3.487,23.742,10.443c5.668,5.923,8.502,12.634,8.502,20.098v77.342
		c0,0.333-0.166,0.509-0.503,0.509h-33.695c-0.337,0-0.504-0.176-0.504-0.509v-63.044c0-9.076-4.03-15.121-12.095-18.135
		c-1.634-0.684-3.985-1.017-7.052-1.017h-57.188v82.195c0,0.333-0.167,0.509-0.504,0.509h-33.695c-0.337,0-0.503-0.176-0.503-0.509
		V405.612C1150.482,405.262,1150.653,405.104,1150.946,405.104z"/>
	<path d="M1320.584,405.104h97.024c0.237,0.035,0.357,0.211,0.357,0.509v24.688c0,0.332-0.12,0.49-0.357,0.49h-97.024
		c-0.274,0-0.409-0.158-0.409-0.49v-24.688C1320.207,405.262,1320.346,405.104,1320.584,405.104z"/>
	<path d="M1304.115,447.542h97.028c0.236,0.053,0.356,0.192,0.356,0.456v22.603c0,0.298-0.12,0.438-0.356,0.438h-97.028
		c-0.272,0-0.406-0.141-0.406-0.438v-22.603C1303.74,447.699,1303.88,447.542,1304.115,447.542z"/>
	<path d="M1320.584,487.79h97.024c0.237,0.053,0.357,0.21,0.357,0.508v24.688c0,0.333-0.12,0.509-0.357,0.509h-97.024
		c-0.274,0-0.409-0.176-0.409-0.509v-24.688C1320.207,487.965,1320.346,487.79,1320.584,487.79z"/>
	<path d="M1430.02,405.104h34.641l46.354,53.6c30.523-35.744,45.868-53.6,46.039-53.6h34.702c0.293,0.035,0.442,0.211,0.442,0.509
		v107.374c0,0.333-0.149,0.509-0.442,0.509h-33.695c-0.337,0-0.503-0.176-0.503-0.509v-63.99l-46.354,53.846h-0.442
		c-0.25-0.07-15.766-18.03-46.543-53.846v63.99c0,0.333-0.167,0.509-0.504,0.509h-33.694c-0.338,0-0.504-0.176-0.504-0.509V405.612
		C1429.555,405.262,1429.726,405.104,1430.02,405.104z"/>
	<path d="M1698.636,405.104c0.587,0.719,21.035,36.674,61.34,107.883v0.509h-34.891c-0.881-0.684-4.683-7.062-11.398-19.152
		c-0.797-0.963-12.283-20.535-34.452-58.698c-1.218,1.385-7.601,12.301-19.147,32.749c-0.626,0.806-9.444,15.84-26.449,45.102
		h-34.641l-0.504-0.264c36.528-64.813,56.894-100.874,61.09-108.128H1698.636z"/>
	<path d="M1736.778,405.104h126.78c0.337,0.035,0.504,0.211,0.504,0.509v24.688c0,0.332-0.167,0.49-0.504,0.49h-46.039v82.195
		c0,0.333-0.167,0.509-0.504,0.509h-33.694c-0.338,0-0.504-0.176-0.504-0.509v-82.195h-46.039c-0.338,0-0.504-0.158-0.504-0.49
		v-24.688C1736.313,405.262,1736.484,405.104,1736.778,405.104z"/>
	<path d="M1872.865,405.104h98.438c10.833,0,19.966,4.275,27.399,12.844c4.03,5.257,6.046,10.741,6.046,16.506v19.905
		c0,10.109-5.646,18.591-16.944,25.441c-2.054,0.789-3.188,1.191-3.399,1.191c1.678,2.821,8.459,13.475,20.344,31.995v0.509h-43.394
		c-0.925-0.719-5.523-9.69-13.794-26.896l-1.954-2.961h-38.544v29.349c0,0.333-0.166,0.509-0.504,0.509h-33.694
		c-0.337,0-0.504-0.176-0.504-0.509V405.612C1872.4,405.262,1872.571,405.104,1872.865,405.104z M1907.063,430.791v27.142h49.188
		c7.053,0,11.503-3.049,13.352-9.182c0.338-1.472,0.504-2.839,0.504-4.101c0-6.588-2.751-10.951-8.248-13.105
		c-1.722-0.491-3.426-0.754-5.104-0.754H1907.063z"/>
	<path d="M2013.552,405.104h33.694c0.337,0.035,0.504,0.211,0.504,0.509v107.374c0,0.333-0.167,0.509-0.504,0.509h-33.694
		c-0.338,0-0.504-0.176-0.504-0.509V405.612C2013.087,405.262,2013.258,405.104,2013.552,405.104z"/>
	<path d="M2056.049,404.596h42.198c0.547,0.421,8.795,10.128,24.749,29.104c12.222-14.998,20.365-24.688,24.438-29.104h42.197v0.245
		l-45.347,54.546c20.492,24.355,35.46,42.298,44.905,53.845v0.264h-42.197c-4.28-4.573-12.218-14.035-23.805-28.351h-0.696
		c-11.586,14.315-19.502,23.777-23.742,28.351h-42.197v-0.264l44.843-54.037c-30.229-35.973-45.347-54.091-45.347-54.354V404.596z"
		/>
	<g>
		<path d="M2293.271,258.611c17.382,0,32.17,6.106,44.383,18.311c12.204,12.208,18.311,27.001,18.311,44.379
			c0,17.307-6.124,32.087-18.363,44.326c-12.248,12.239-27.019,18.363-44.33,18.363c-17.232,0-31.995-6.142-44.27-18.416
			c-12.273-12.274-18.416-27.036-18.416-44.273c0-17.308,6.125-32.083,18.363-44.326
			C2261.188,264.735,2275.968,258.611,2293.271,258.611z M2293.271,272.546c-13.501,0-25.004,4.748-34.51,14.245
			c-9.497,9.497-14.245,21-14.245,34.51c0,13.369,4.783,24.842,14.351,34.408c9.566,9.567,21.044,14.351,34.404,14.351
			c13.51,0,25.013-4.748,34.51-14.245c9.506-9.497,14.254-21.005,14.254-34.514c0-13.51-4.748-25.013-14.254-34.51
			C2318.283,277.294,2306.78,272.546,2293.271,272.546z M2307.2,300.405h-13.93c-3.863,0-7.158,1.354-9.865,4.062
			c-2.707,2.711-4.064,6.001-4.064,9.869v13.93c0,3.802,1.375,7.07,4.117,9.816c2.742,2.742,6.019,4.118,9.813,4.118h13.93
			c4.652,0,6.974,2.313,6.974,6.956c0,4.652-2.321,6.974-6.974,6.974h-13.93c-7.807,0-14.403-2.707-19.782-8.13
			c-5.388-5.415-8.078-11.994-8.078-19.734v-13.93c0-7.811,2.708-14.403,8.13-19.787c5.415-5.384,11.994-8.073,19.73-8.073h13.93
			c4.652,0,6.974,2.321,6.974,6.965S2311.853,300.405,2307.2,300.405z"/>
	</g>
	<path fill="#DF0013" d="M237.75,397.92l145.292-251.997c-21.035-6.789-43.438-10.557-66.741-10.557s-45.706,3.768-66.737,10.557
		L104.075,397.92H237.75"/>
	<path d="M1320.581,489.998h97.028c0.236,0.053,0.356,0.192,0.356,0.456v22.603c0,0.298-0.12,0.438-0.356,0.438h-97.028
		c-0.272,0-0.406-0.141-0.406-0.438v-22.603C1320.206,490.155,1320.346,489.998,1320.581,489.998z"/>
</g>
</svg>
