<?xml version="1.0" encoding="utf-8"?>
<!-- Generator: Adobe Illustrator 19.0.0, SVG Export Plug-In . SVG Version: 6.00 Build 0)  -->
<svg version="1.1" id="图层_1" xmlns="http://www.w3.org/2000/svg" xmlns:xlink="http://www.w3.org/1999/xlink" x="0px" y="0px"
	 viewBox="0 0 285.7 69.3" style="enable-background:new 0 0 285.7 69.3;" xml:space="preserve">
<style type="text/css">
	.st0{fill:#E61673;}
</style>
<g id="XMLID_1_">
	<polygon id="XMLID_6_" class="st0" points="41.9,12.5 38.8,9.4 14,34.1 38.8,58.8 41.9,55.7 20.2,34.1 	"/>
	<polygon id="XMLID_7_" class="st0" points="243.4,11.9 265,33.6 243.4,55.2 246.5,58.3 271.2,33.6 246.5,8.8 	"/>
	<g id="XMLID_3_">
		<path id="XMLID_45_" class="st0" d="M58.6,53.5c3.5-8,5.2-16.7,4.9-26h6.4c3,0.3,4.4-1.1,4.1-4.1v-6c0.3-2.5-1.1-3.9-4.1-4.1h-4.5
			c-2.8,0-4.1,1.4-4.1,4.1v10.2c0.3,9-1.3,17.3-4.5,24.9C56.7,53.9,57.3,54.3,58.6,53.5z M63.5,17.3c0-1.3,0.6-1.9,1.9-1.9h4.1
			c1.8,0,2.5,0.8,2.3,2.3V23c0.3,1.8-0.5,2.5-2.3,2.3h-6V17.3z"/>
		<path id="XMLID_60_" class="st0" d="M70.6,33.6h-3.4c-2,0.3-3,1.6-3,4.1v12.8c0,3,1.3,4.4,3.8,4.1h2.3c2.8,0.3,4-1.1,3.8-4.1V37.7
			C74.3,35.2,73.2,33.8,70.6,33.6z M69.9,52.4H68c-1,0.3-1.5-0.5-1.5-2.3V37.7c0-1.3,0.6-1.9,1.9-1.9h1.5c1.5,0,2.1,0.8,1.9,2.3
			v12.1C72,51.9,71.4,52.7,69.9,52.4z"/>
		<path id="XMLID_61_" class="st0" d="M219.9,24.9c1.3,8.3,1.9,17.2,1.9,26.8c0.5,1.3,1.3,1.3,2.3,0c0-9.6-0.6-18.6-1.9-27.1
			C221.2,23.5,220.5,23.6,219.9,24.9z"/>
		<path id="XMLID_91_" class="st0" d="M203.4,45.6V19.2c0.3-2.5-1.1-3.8-4.1-3.8h-2.6c-2.5,0-3.8,1.4-3.8,4.1v26
			c0,2.8,1.1,4,3.4,3.8h3.4C202.4,49.6,203.6,48.4,203.4,45.6z M201.1,19.6v25.6c0.3,1.5-0.5,2.1-2.3,1.9h-1.9
			c-1.3,0.3-1.9-0.4-1.9-1.9V19.6c0-1.3,0.6-1.9,1.9-1.9h2.3C200.7,17.7,201.3,18.4,201.1,19.6z"/>
		<path id="XMLID_94_" class="st0" d="M151.3,16.6h-2.3c-2.5,0-3.8,1-3.8,3v30.9c0,2.8,1.3,4,3.8,3.8h2.3c2.8,0.3,4-1,3.8-3.8V19.6
			C155.3,17.6,154.1,16.6,151.3,16.6z M152.8,49.8c0.3,1.8-0.5,2.5-2.3,2.3h-0.8c-1.5,0.3-2.3-0.5-2.3-2.3V20.4c0-1,0.8-1.5,2.3-1.5
			h0.8c1.8,0,2.5,0.5,2.3,1.5V49.8z"/>
		<path id="XMLID_97_" class="st0" d="M103.8,13.6h-3c-2.8,0-4.1,1.5-4.1,4.5v27.5c0,3,1.3,4.4,3.8,4.1h2.6c3.5,0.3,5.2-1.3,4.9-4.5
			V18.1C108.2,15.1,106.8,13.6,103.8,13.6z M103.1,47.5h-1.9c-1.5,0.3-2.3-0.5-2.3-2.3V18.9c0-2,0.9-3,2.6-3h1.9
			c1.8,0,2.5,0.8,2.3,2.3v26.8C106,46.9,105.1,47.8,103.1,47.5z"/>
		<path id="XMLID_100_" class="st0" d="M108,52.8c-1,0.8-1,1.5,0,2.3h32c1.3-0.8,1.3-1.5,0-2.3h-14.7v-6h12.4c1.3-0.8,1.3-1.5,0-2.3
			h-12.4v-6h7.5c3.3,0.3,4.8-1.4,4.5-4.9V17c0.3-2.8-1.3-4.1-4.5-4.1h-17c-2.8,0-4.1,1.5-4.1,4.5v16.6c0,3.3,1.6,4.8,4.9,4.5h6.4v6
			H111c-1,0.8-1,1.5,0,2.3h12.1v6H108z M125.3,15.1h7.2c2,0,2.9,0.8,2.6,2.3v6.8h-9.8V15.1z M125.3,26.4h9.8v7.2
			c0.3,2-0.8,2.9-3,2.6h-6.8V26.4z M114,17.3c0-1.5,0.9-2.3,2.6-2.3h6.4v9h-9V17.3z M116.3,36.2c-1.5,0.3-2.3-0.5-2.3-2.3v-7.5h9
			v9.8H116.3z"/>
		<path id="XMLID_104_" class="st0" d="M83.1,17.7h-6.4c-1.3,0.8-1.3,1.5,0,2.3H91c1.3-0.8,1.3-1.5,0-2.3h-5.3
			c-0.8-1.8-1.6-3.5-2.6-5.3c-0.1-0.1-0.3-0.2-0.4-0.3h-1.4c-0.2,0.2-0.3,0.6-0.4,1C82.1,15.5,82.8,17,83.1,17.7z"/>
		<path id="XMLID_107_" class="st0" d="M188.3,52V24.1c0.3-2.5-1-3.8-3.8-3.8h-6c0.8-1.3,1.5-3.6,2.3-7.2c-0.5-1.3-1.3-1.4-2.3-0.4
			c-0.5,2.8-1.4,5.3-2.6,7.5h-2.6c-2.5,0-3.8,1.3-3.8,3.8V52c0,1.7,0.5,2.8,1.4,3.4H187C188,54.9,188.4,53.7,188.3,52z M186,51.3
			c0.3,1.8-0.5,2.5-2.3,2.3h-9.8c-1.5,0.3-2.3-0.5-2.3-2.3V38.8H186V51.3z M186,36.6h-14.3V24.9c0-1.5,0.8-2.3,2.3-2.3h9.8
			c1.8,0,2.5,0.8,2.3,2.3V36.6z"/>
		<path id="XMLID_109_" class="st0" d="M235.8,19.2H229c-1-2.8-2-4.8-3-6c-1.3-1-2-0.8-2.3,0.8c1.3,1.8,2.1,3.5,2.6,5.3h-7.2
			c-1.3,0.8-1.3,1.5,0,2.3h17C237.2,20.7,237,20,235.8,19.2z"/>
		<path id="XMLID_110_" class="st0" d="M236.2,53.2h-5.7c1.5-9,2.6-18.6,3.4-28.7c-0.8-1-1.5-1-2.3,0c-0.8,10.3-1.9,19.9-3.4,28.7
			h-12.1c-1,0.8-1.1,1.5-0.4,2.3h21.1v-1.1C236.9,53.9,236.7,53.5,236.2,53.2z"/>
		<path id="XMLID_111_" class="st0" d="M212.4,52V37.7c2-1.3,3.8-2.4,5.3-3.4c0.5-1.3,0.1-1.9-1.1-1.9c-1.5,1-2.9,1.9-4.1,2.6V23
			h3.8c1.3-0.8,1.3-1.5,0-2.3h-3.8v-8.3c-0.1-0.1-0.1-0.2-0.2-0.3h-1.9c-0.1,0.1-0.1,0.2-0.2,0.3v8.3h-4.9c-1,0.8-1,1.5,0,2.3h4.9
			v13.2c-1.5,1-3.3,2-5.3,3c-0.5,1.3-0.1,1.9,1.1,1.9c1.5-0.8,2.9-1.5,4.1-2.3v12.1c0.5,2.8-1.5,3.1-6,1.1c-1.3,0.5-1.5,1.4-0.8,2.6
			c1.1,0.3,2.1,0.6,3,0.8h4.3C212.1,54.9,212.6,53.8,212.4,52z"/>
		<path id="XMLID_112_" class="st0" d="M91,42.6c1-0.8,1-1.5,0-2.3h-6v-8.3h6.8c1.3-0.8,1.3-1.5,0-2.3h-4.5c1-2.5,1.8-5,2.3-7.5
			c-0.5-1.5-1.3-1.6-2.3-0.4c-0.3,1.5-1,4.1-2.3,7.9h-1.9c-1-3.5-2.1-6.3-3.4-8.3c-1.3-0.8-1.9-0.4-1.9,1.1c1,2,2,4.4,3,7.2h-5.3
			c-1,0.8-1,1.5,0,2.3h7.2v8.3h-6.8c-1,0.8-1,1.5,0,2.3h6.8v12.8H85V42.6H91z"/>
		<path id="XMLID_113_" class="st0" d="M164.1,52.8V39.2c2.3-1.3,3.8-2.3,4.5-3c0.5-1.3,0.1-1.9-1.1-1.9c-0.8,0.5-1.9,1.3-3.4,2.3
			V23.4h3.8c1-0.8,1-1.5,0-2.3h-3.8v-7.5c-0.8-1.3-1.5-1.3-2.3,0v7.5h-5.3c-1,0.8-1,1.5,0,2.3h5.3v14.3c-1.8,0.8-3.4,1.4-4.9,1.9
			c-1,1.5-0.8,2.3,0.8,2.3c1.5-0.5,2.9-1.1,4.1-1.9v12.4c0.3,1.5-1.5,1.6-5.3,0.4c-1.3,0.3-1.5,1-0.8,2.3c0.5,0.2,1,0.3,1.4,0.4h5.8
			C163.9,54.9,164.2,54,164.1,52.8z"/>
		<path id="XMLID_116_" class="st0" d="M52.2,49.4h1.1c3,0.3,4.4-1.3,4.1-4.5V17.7c0.3-2.5-1-3.8-3.8-3.8h-1.5
			c-2.5,0-3.8,1.4-3.8,4.1v27.1C48.4,48.3,49.7,49.6,52.2,49.4z M50.7,18.1c0-1.3,0.6-1.9,1.9-1.9h0.8c1.5,0,2.1,0.6,1.9,1.9v26.8
			c0.3,1.8-0.4,2.5-1.9,2.3h-0.8c-1.3,0.3-1.9-0.5-1.9-2.3V18.1z"/>
	</g>
</g>
</svg>
